<mxfile host="app.diagrams.net" modified="2022-12-18T23:13:45.969Z" agent="5.0 (X11; Ubuntu)" etag="8WTjPUPFxPlu2-k532TG" version="20.7.4" type="github">
  <diagram id="C5RBs43oDa-KdzZeNtuy" name="Page-1">
    <mxGraphModel dx="2187" dy="3133" grid="1" gridSize="10" guides="1" tooltips="1" connect="1" arrows="1" fold="1" page="1" pageScale="1" pageWidth="827" pageHeight="1169" math="0" shadow="0">
      <root>
        <mxCell id="WIyWlLk6GJQsqaUBKTNV-0" />
        <mxCell id="WIyWlLk6GJQsqaUBKTNV-1" parent="WIyWlLk6GJQsqaUBKTNV-0" />
        <mxCell id="0v1ROKlj3fr6N2Xui-20-113" value="create" style="edgeStyle=orthogonalEdgeStyle;rounded=0;orthogonalLoop=1;jettySize=auto;html=1;entryX=0.5;entryY=1;entryDx=0;entryDy=0;" edge="1" parent="WIyWlLk6GJQsqaUBKTNV-1" source="0v1ROKlj3fr6N2Xui-20-0" target="0v1ROKlj3fr6N2Xui-20-109">
          <mxGeometry relative="1" as="geometry" />
        </mxCell>
        <mxCell id="0v1ROKlj3fr6N2Xui-20-0" value="App" style="swimlane;fontStyle=1;align=center;verticalAlign=top;childLayout=stackLayout;horizontal=1;startSize=26;horizontalStack=0;resizeParent=1;resizeParentMax=0;resizeLast=0;collapsible=1;marginBottom=0;" vertex="1" parent="WIyWlLk6GJQsqaUBKTNV-1">
          <mxGeometry x="1095" y="1050" width="160" height="86" as="geometry" />
        </mxCell>
        <mxCell id="0v1ROKlj3fr6N2Xui-20-1" value="+ App()" style="text;strokeColor=none;fillColor=none;align=left;verticalAlign=top;spacingLeft=4;spacingRight=4;overflow=hidden;rotatable=0;points=[[0,0.5],[1,0.5]];portConstraint=eastwest;" vertex="1" parent="0v1ROKlj3fr6N2Xui-20-0">
          <mxGeometry y="26" width="160" height="26" as="geometry" />
        </mxCell>
        <mxCell id="0v1ROKlj3fr6N2Xui-20-2" value="" style="line;strokeWidth=1;fillColor=none;align=left;verticalAlign=middle;spacingTop=-1;spacingLeft=3;spacingRight=3;rotatable=0;labelPosition=right;points=[];portConstraint=eastwest;strokeColor=inherit;" vertex="1" parent="0v1ROKlj3fr6N2Xui-20-0">
          <mxGeometry y="52" width="160" height="8" as="geometry" />
        </mxCell>
        <mxCell id="0v1ROKlj3fr6N2Xui-20-3" value="+main(String[])         void" style="text;strokeColor=none;fillColor=none;align=left;verticalAlign=top;spacingLeft=4;spacingRight=4;overflow=hidden;rotatable=0;points=[[0,0.5],[1,0.5]];portConstraint=eastwest;" vertex="1" parent="0v1ROKlj3fr6N2Xui-20-0">
          <mxGeometry y="60" width="160" height="26" as="geometry" />
        </mxCell>
        <mxCell id="0v1ROKlj3fr6N2Xui-20-116" value="create" style="edgeStyle=orthogonalEdgeStyle;rounded=0;orthogonalLoop=1;jettySize=auto;html=1;entryX=0.307;entryY=1.025;entryDx=0;entryDy=0;entryPerimeter=0;" edge="1" parent="WIyWlLk6GJQsqaUBKTNV-1" source="0v1ROKlj3fr6N2Xui-20-7" target="0v1ROKlj3fr6N2Xui-20-15">
          <mxGeometry relative="1" as="geometry" />
        </mxCell>
        <mxCell id="0v1ROKlj3fr6N2Xui-20-118" value="1" style="edgeStyle=orthogonalEdgeStyle;rounded=0;orthogonalLoop=1;jettySize=auto;html=1;entryX=0.777;entryY=1;entryDx=0;entryDy=0;entryPerimeter=0;startArrow=diamond;startFill=1;endArrow=diamond;endFill=1;fillColor=#ffe6cc;strokeColor=#d79b00;verticalAlign=top;" edge="1" parent="WIyWlLk6GJQsqaUBKTNV-1" source="0v1ROKlj3fr6N2Xui-20-7" target="0v1ROKlj3fr6N2Xui-20-27">
          <mxGeometry x="-0.8742" y="10" relative="1" as="geometry">
            <Array as="points">
              <mxPoint x="990" y="330" />
              <mxPoint x="853" y="330" />
              <mxPoint x="860" y="260" />
            </Array>
            <mxPoint as="offset" />
          </mxGeometry>
        </mxCell>
        <mxCell id="0v1ROKlj3fr6N2Xui-20-121" value="*" style="edgeLabel;html=1;align=center;verticalAlign=middle;resizable=0;points=[];" vertex="1" connectable="0" parent="0v1ROKlj3fr6N2Xui-20-118">
          <mxGeometry x="0.8659" y="-3" relative="1" as="geometry">
            <mxPoint x="4" y="-12" as="offset" />
          </mxGeometry>
        </mxCell>
        <mxCell id="0v1ROKlj3fr6N2Xui-20-7" value="ServerCore" style="swimlane;fontStyle=1;align=center;verticalAlign=top;childLayout=stackLayout;horizontal=1;startSize=26;horizontalStack=0;resizeParent=1;resizeParentMax=0;resizeLast=0;collapsible=1;marginBottom=0;" vertex="1" parent="WIyWlLk6GJQsqaUBKTNV-1">
          <mxGeometry x="680" y="560" width="360" height="230" as="geometry" />
        </mxCell>
        <mxCell id="0v1ROKlj3fr6N2Xui-20-8" value="+terminalControler:            TerminalControler&#xa;+serverSocket:                   ServerSocket&#xa;+userConnections:             LinkedList&lt;UserComunicationThread&gt;&#xa;+serverLobbys:                   LinkedList&lt;Lobby&gt;&#xa;+isRunning:                         bool&#xa;" style="text;strokeColor=none;fillColor=none;align=left;verticalAlign=top;spacingLeft=4;spacingRight=4;overflow=hidden;rotatable=0;points=[[0,0.5],[1,0.5]];portConstraint=eastwest;" vertex="1" parent="0v1ROKlj3fr6N2Xui-20-7">
          <mxGeometry y="26" width="360" height="84" as="geometry" />
        </mxCell>
        <mxCell id="0v1ROKlj3fr6N2Xui-20-9" value="" style="line;strokeWidth=1;fillColor=none;align=left;verticalAlign=middle;spacingTop=-1;spacingLeft=3;spacingRight=3;rotatable=0;labelPosition=right;points=[];portConstraint=eastwest;strokeColor=inherit;" vertex="1" parent="0v1ROKlj3fr6N2Xui-20-7">
          <mxGeometry y="110" width="360" height="8" as="geometry" />
        </mxCell>
        <mxCell id="0v1ROKlj3fr6N2Xui-20-10" value="+ SereverCore():              &#xa;&#xa;+ ServerCoreSetup():        void            &#xa;+ close(boolean):               void&#xa;+ command(String):           void&#xa;+getLobbyHost(String):      Lobby&#xa;-startServer(int):                void" style="text;strokeColor=none;fillColor=none;align=left;verticalAlign=top;spacingLeft=4;spacingRight=4;overflow=hidden;rotatable=0;points=[[0,0.5],[1,0.5]];portConstraint=eastwest;" vertex="1" parent="0v1ROKlj3fr6N2Xui-20-7">
          <mxGeometry y="118" width="360" height="112" as="geometry" />
        </mxCell>
        <mxCell id="0v1ROKlj3fr6N2Xui-20-117" value="create" style="edgeStyle=orthogonalEdgeStyle;rounded=0;orthogonalLoop=1;jettySize=auto;html=1;entryX=0.2;entryY=1;entryDx=0;entryDy=0;entryPerimeter=0;" edge="1" parent="WIyWlLk6GJQsqaUBKTNV-1" source="0v1ROKlj3fr6N2Xui-20-12" target="0v1ROKlj3fr6N2Xui-20-27">
          <mxGeometry relative="1" as="geometry" />
        </mxCell>
        <mxCell id="0v1ROKlj3fr6N2Xui-20-12" value="ConectionListner" style="swimlane;fontStyle=1;align=center;verticalAlign=top;childLayout=stackLayout;horizontal=1;startSize=26;horizontalStack=0;resizeParent=1;resizeParentMax=0;resizeLast=0;collapsible=1;marginBottom=0;" vertex="1" parent="WIyWlLk6GJQsqaUBKTNV-1">
          <mxGeometry x="645" y="380" width="270" height="100" as="geometry" />
        </mxCell>
        <mxCell id="0v1ROKlj3fr6N2Xui-20-13" value="server:        ServerSocket" style="text;strokeColor=none;fillColor=none;align=left;verticalAlign=top;spacingLeft=4;spacingRight=4;overflow=hidden;rotatable=0;points=[[0,0.5],[1,0.5]];portConstraint=eastwest;" vertex="1" parent="0v1ROKlj3fr6N2Xui-20-12">
          <mxGeometry y="26" width="270" height="26" as="geometry" />
        </mxCell>
        <mxCell id="0v1ROKlj3fr6N2Xui-20-14" value="" style="line;strokeWidth=1;fillColor=none;align=left;verticalAlign=middle;spacingTop=-1;spacingLeft=3;spacingRight=3;rotatable=0;labelPosition=right;points=[];portConstraint=eastwest;strokeColor=inherit;" vertex="1" parent="0v1ROKlj3fr6N2Xui-20-12">
          <mxGeometry y="52" width="270" height="8" as="geometry" />
        </mxCell>
        <mxCell id="0v1ROKlj3fr6N2Xui-20-15" value="#ConnectionListner(ServerSocket)&#xa;+run():          void" style="text;strokeColor=none;fillColor=none;align=left;verticalAlign=top;spacingLeft=4;spacingRight=4;overflow=hidden;rotatable=0;points=[[0,0.5],[1,0.5]];portConstraint=eastwest;" vertex="1" parent="0v1ROKlj3fr6N2Xui-20-12">
          <mxGeometry y="60" width="270" height="40" as="geometry" />
        </mxCell>
        <mxCell id="0v1ROKlj3fr6N2Xui-20-122" style="edgeStyle=orthogonalEdgeStyle;rounded=0;sketch=0;orthogonalLoop=1;jettySize=auto;html=1;entryX=0.809;entryY=1.037;entryDx=0;entryDy=0;entryPerimeter=0;startArrow=diamond;startFill=1;endArrow=diamond;endFill=1;fillColor=#ffe6cc;strokeColor=#d79b00;" edge="1" parent="WIyWlLk6GJQsqaUBKTNV-1" source="0v1ROKlj3fr6N2Xui-20-24" target="0v1ROKlj3fr6N2Xui-20-92">
          <mxGeometry relative="1" as="geometry">
            <Array as="points">
              <mxPoint x="353" y="-70" />
            </Array>
          </mxGeometry>
        </mxCell>
        <mxCell id="0v1ROKlj3fr6N2Xui-20-123" value="1" style="edgeLabel;html=1;align=center;verticalAlign=middle;resizable=0;points=[];" vertex="1" connectable="0" parent="0v1ROKlj3fr6N2Xui-20-122">
          <mxGeometry x="0.9123" y="-3" relative="1" as="geometry">
            <mxPoint x="14" y="1" as="offset" />
          </mxGeometry>
        </mxCell>
        <mxCell id="0v1ROKlj3fr6N2Xui-20-125" value="*" style="edgeLabel;html=1;align=center;verticalAlign=middle;resizable=0;points=[];" vertex="1" connectable="0" parent="0v1ROKlj3fr6N2Xui-20-122">
          <mxGeometry x="-0.8572" relative="1" as="geometry">
            <mxPoint y="-10" as="offset" />
          </mxGeometry>
        </mxCell>
        <mxCell id="0v1ROKlj3fr6N2Xui-20-141" style="edgeStyle=orthogonalEdgeStyle;rounded=0;sketch=0;orthogonalLoop=1;jettySize=auto;html=1;startArrow=none;startFill=0;endArrow=classicThin;endFill=1;entryX=0.588;entryY=1.038;entryDx=0;entryDy=0;entryPerimeter=0;" edge="1" parent="WIyWlLk6GJQsqaUBKTNV-1" source="0v1ROKlj3fr6N2Xui-20-24" target="0v1ROKlj3fr6N2Xui-20-76">
          <mxGeometry relative="1" as="geometry">
            <mxPoint x="710" y="-740" as="targetPoint" />
            <Array as="points">
              <mxPoint x="704" y="-210" />
              <mxPoint x="704" y="-210" />
            </Array>
          </mxGeometry>
        </mxCell>
        <mxCell id="0v1ROKlj3fr6N2Xui-20-143" style="edgeStyle=orthogonalEdgeStyle;rounded=0;sketch=0;orthogonalLoop=1;jettySize=auto;html=1;entryX=0.475;entryY=1;entryDx=0;entryDy=0;entryPerimeter=0;startArrow=none;startFill=0;endArrow=classicThin;endFill=1;" edge="1" parent="WIyWlLk6GJQsqaUBKTNV-1" source="0v1ROKlj3fr6N2Xui-20-24" target="0v1ROKlj3fr6N2Xui-20-58">
          <mxGeometry relative="1" as="geometry">
            <Array as="points">
              <mxPoint x="856" y="-320" />
              <mxPoint x="856" y="-320" />
            </Array>
          </mxGeometry>
        </mxCell>
        <mxCell id="0v1ROKlj3fr6N2Xui-20-24" value="UserCommunicationThread" style="swimlane;fontStyle=1;align=center;verticalAlign=top;childLayout=stackLayout;horizontal=1;startSize=26;horizontalStack=0;resizeParent=1;resizeParentMax=0;resizeLast=0;collapsible=1;marginBottom=0;" vertex="1" parent="WIyWlLk6GJQsqaUBKTNV-1">
          <mxGeometry x="620" y="-150" width="300" height="370" as="geometry" />
        </mxCell>
        <mxCell id="0v1ROKlj3fr6N2Xui-20-25" value="+in:                    ObjectInputStrem&#xa;+out:                  ObjectOutputStrem&#xa;#clientSocket:   Socket&#xa;#messege;        MessageHolder&#xa;+myLobby:        Lobby&#xa;" style="text;strokeColor=none;fillColor=none;align=left;verticalAlign=top;spacingLeft=4;spacingRight=4;overflow=hidden;rotatable=0;points=[[0,0.5],[1,0.5]];portConstraint=eastwest;" vertex="1" parent="0v1ROKlj3fr6N2Xui-20-24">
          <mxGeometry y="26" width="300" height="94" as="geometry" />
        </mxCell>
        <mxCell id="0v1ROKlj3fr6N2Xui-20-26" value="" style="line;strokeWidth=1;fillColor=none;align=left;verticalAlign=middle;spacingTop=-1;spacingLeft=3;spacingRight=3;rotatable=0;labelPosition=right;points=[];portConstraint=eastwest;strokeColor=inherit;" vertex="1" parent="0v1ROKlj3fr6N2Xui-20-24">
          <mxGeometry y="120" width="300" height="38" as="geometry" />
        </mxCell>
        <mxCell id="0v1ROKlj3fr6N2Xui-20-27" value="UserComumunicationThread(Socket)        void&#xa;+changeLobbyName(MessageHolder)      void&#xa;+close()                                                      void&#xa;-creatLobby()                                              void&#xa;-exitLobby()                                                void&#xa;-joinLobby(MessageHandler)                     void&#xa;-login(MessageHandler)                             void&#xa;-move(MessageHandler)                            void&#xa;-ready()                                                      void&#xa;-register(MessageHolder)                          void&#xa;+run()                                                         void&#xa;+setInOut()                                                 void&#xa;startGame()                                                void" style="text;strokeColor=none;fillColor=none;align=left;verticalAlign=top;spacingLeft=4;spacingRight=4;overflow=hidden;rotatable=0;points=[[0,0.5],[1,0.5]];portConstraint=eastwest;" vertex="1" parent="0v1ROKlj3fr6N2Xui-20-24">
          <mxGeometry y="158" width="300" height="212" as="geometry" />
        </mxCell>
        <mxCell id="0v1ROKlj3fr6N2Xui-20-31" value="LobbyListMessage" style="swimlane;fontStyle=1;align=center;verticalAlign=top;childLayout=stackLayout;horizontal=1;startSize=26;horizontalStack=0;resizeParent=1;resizeParentMax=0;resizeLast=0;collapsible=1;marginBottom=0;" vertex="1" parent="WIyWlLk6GJQsqaUBKTNV-1">
          <mxGeometry x="1313" y="-789" width="240" height="86" as="geometry" />
        </mxCell>
        <mxCell id="0v1ROKlj3fr6N2Xui-20-32" value="+LobbyListMassage()" style="text;strokeColor=none;fillColor=none;align=left;verticalAlign=top;spacingLeft=4;spacingRight=4;overflow=hidden;rotatable=0;points=[[0,0.5],[1,0.5]];portConstraint=eastwest;" vertex="1" parent="0v1ROKlj3fr6N2Xui-20-31">
          <mxGeometry y="26" width="240" height="26" as="geometry" />
        </mxCell>
        <mxCell id="0v1ROKlj3fr6N2Xui-20-33" value="" style="line;strokeWidth=1;fillColor=none;align=left;verticalAlign=middle;spacingTop=-1;spacingLeft=3;spacingRight=3;rotatable=0;labelPosition=right;points=[];portConstraint=eastwest;strokeColor=inherit;" vertex="1" parent="0v1ROKlj3fr6N2Xui-20-31">
          <mxGeometry y="52" width="240" height="8" as="geometry" />
        </mxCell>
        <mxCell id="0v1ROKlj3fr6N2Xui-20-34" value="+ lobby LinkedList&lt;LobbyClass&gt;" style="text;strokeColor=none;fillColor=none;align=left;verticalAlign=top;spacingLeft=4;spacingRight=4;overflow=hidden;rotatable=0;points=[[0,0.5],[1,0.5]];portConstraint=eastwest;" vertex="1" parent="0v1ROKlj3fr6N2Xui-20-31">
          <mxGeometry y="60" width="240" height="26" as="geometry" />
        </mxCell>
        <mxCell id="0v1ROKlj3fr6N2Xui-20-43" value="LobbyClass" style="swimlane;fontStyle=1;align=center;verticalAlign=top;childLayout=stackLayout;horizontal=1;startSize=26;horizontalStack=0;resizeParent=1;resizeParentMax=0;resizeLast=0;collapsible=1;marginBottom=0;" vertex="1" parent="WIyWlLk6GJQsqaUBKTNV-1">
          <mxGeometry x="990" y="-1060" width="280" height="120" as="geometry" />
        </mxCell>
        <mxCell id="0v1ROKlj3fr6N2Xui-20-44" value="+gameName:                        String&#xa;+hostName:                          String" style="text;strokeColor=none;fillColor=none;align=left;verticalAlign=top;spacingLeft=4;spacingRight=4;overflow=hidden;rotatable=0;points=[[0,0.5],[1,0.5]];portConstraint=eastwest;" vertex="1" parent="0v1ROKlj3fr6N2Xui-20-43">
          <mxGeometry y="26" width="280" height="44" as="geometry" />
        </mxCell>
        <mxCell id="0v1ROKlj3fr6N2Xui-20-45" value="" style="line;strokeWidth=1;fillColor=none;align=left;verticalAlign=middle;spacingTop=-1;spacingLeft=3;spacingRight=3;rotatable=0;labelPosition=right;points=[];portConstraint=eastwest;strokeColor=inherit;" vertex="1" parent="0v1ROKlj3fr6N2Xui-20-43">
          <mxGeometry y="70" width="280" height="8" as="geometry" />
        </mxCell>
        <mxCell id="0v1ROKlj3fr6N2Xui-20-46" value="+lobbyClass:                      &#xa;+hostName():                        String&#xa;&#xa;" style="text;strokeColor=none;fillColor=none;align=left;verticalAlign=top;spacingLeft=4;spacingRight=4;overflow=hidden;rotatable=0;points=[[0,0.5],[1,0.5]];portConstraint=eastwest;" vertex="1" parent="0v1ROKlj3fr6N2Xui-20-43">
          <mxGeometry y="78" width="280" height="42" as="geometry" />
        </mxCell>
        <mxCell id="0v1ROKlj3fr6N2Xui-20-51" value="RegisterMessage" style="swimlane;fontStyle=1;align=center;verticalAlign=top;childLayout=stackLayout;horizontal=1;startSize=26;horizontalStack=0;resizeParent=1;resizeParentMax=0;resizeLast=0;collapsible=1;marginBottom=0;" vertex="1" parent="WIyWlLk6GJQsqaUBKTNV-1">
          <mxGeometry x="1060" y="-848" width="160" height="94" as="geometry" />
        </mxCell>
        <mxCell id="0v1ROKlj3fr6N2Xui-20-52" value="-login                String&#xa;-password        String&#xa;" style="text;strokeColor=none;fillColor=none;align=left;verticalAlign=top;spacingLeft=4;spacingRight=4;overflow=hidden;rotatable=0;points=[[0,0.5],[1,0.5]];portConstraint=eastwest;" vertex="1" parent="0v1ROKlj3fr6N2Xui-20-51">
          <mxGeometry y="26" width="160" height="34" as="geometry" />
        </mxCell>
        <mxCell id="0v1ROKlj3fr6N2Xui-20-53" value="" style="line;strokeWidth=1;fillColor=none;align=left;verticalAlign=middle;spacingTop=-1;spacingLeft=3;spacingRight=3;rotatable=0;labelPosition=right;points=[];portConstraint=eastwest;strokeColor=inherit;" vertex="1" parent="0v1ROKlj3fr6N2Xui-20-51">
          <mxGeometry y="60" width="160" height="8" as="geometry" />
        </mxCell>
        <mxCell id="0v1ROKlj3fr6N2Xui-20-54" value="+RegisterMessage()" style="text;strokeColor=none;fillColor=none;align=left;verticalAlign=top;spacingLeft=4;spacingRight=4;overflow=hidden;rotatable=0;points=[[0,0.5],[1,0.5]];portConstraint=eastwest;" vertex="1" parent="0v1ROKlj3fr6N2Xui-20-51">
          <mxGeometry y="68" width="160" height="26" as="geometry" />
        </mxCell>
        <mxCell id="0v1ROKlj3fr6N2Xui-20-147" style="edgeStyle=orthogonalEdgeStyle;rounded=0;sketch=0;orthogonalLoop=1;jettySize=auto;html=1;entryX=0.5;entryY=1;entryDx=0;entryDy=0;startArrow=none;startFill=0;endArrow=classicThin;endFill=1;" edge="1" parent="WIyWlLk6GJQsqaUBKTNV-1" source="0v1ROKlj3fr6N2Xui-20-55" target="0v1ROKlj3fr6N2Xui-20-81">
          <mxGeometry relative="1" as="geometry">
            <Array as="points">
              <mxPoint x="860" y="-840" />
              <mxPoint x="770" y="-840" />
            </Array>
          </mxGeometry>
        </mxCell>
        <mxCell id="0v1ROKlj3fr6N2Xui-20-55" value="MoveMessage" style="swimlane;fontStyle=1;align=center;verticalAlign=top;childLayout=stackLayout;horizontal=1;startSize=26;horizontalStack=0;resizeParent=1;resizeParentMax=0;resizeLast=0;collapsible=1;marginBottom=0;" vertex="1" parent="WIyWlLk6GJQsqaUBKTNV-1">
          <mxGeometry x="780" y="-808" width="160" height="124" as="geometry" />
        </mxCell>
        <mxCell id="0v1ROKlj3fr6N2Xui-20-56" value="+moveX:               int&#xa;+moveY:               int&#xa;+pawnX:               int&#xa;+pownY:               int&#xa;" style="text;strokeColor=none;fillColor=none;align=left;verticalAlign=top;spacingLeft=4;spacingRight=4;overflow=hidden;rotatable=0;points=[[0,0.5],[1,0.5]];portConstraint=eastwest;" vertex="1" parent="0v1ROKlj3fr6N2Xui-20-55">
          <mxGeometry y="26" width="160" height="64" as="geometry" />
        </mxCell>
        <mxCell id="0v1ROKlj3fr6N2Xui-20-57" value="" style="line;strokeWidth=1;fillColor=none;align=left;verticalAlign=middle;spacingTop=-1;spacingLeft=3;spacingRight=3;rotatable=0;labelPosition=right;points=[];portConstraint=eastwest;strokeColor=inherit;" vertex="1" parent="0v1ROKlj3fr6N2Xui-20-55">
          <mxGeometry y="90" width="160" height="8" as="geometry" />
        </mxCell>
        <mxCell id="0v1ROKlj3fr6N2Xui-20-58" value="+MoveMessage()" style="text;strokeColor=none;fillColor=none;align=left;verticalAlign=top;spacingLeft=4;spacingRight=4;overflow=hidden;rotatable=0;points=[[0,0.5],[1,0.5]];portConstraint=eastwest;" vertex="1" parent="0v1ROKlj3fr6N2Xui-20-55">
          <mxGeometry y="98" width="160" height="26" as="geometry" />
        </mxCell>
        <mxCell id="0v1ROKlj3fr6N2Xui-20-59" value="LoginMessage" style="swimlane;fontStyle=1;align=center;verticalAlign=top;childLayout=stackLayout;horizontal=1;startSize=26;horizontalStack=0;resizeParent=1;resizeParentMax=0;resizeLast=0;collapsible=1;marginBottom=0;" vertex="1" parent="WIyWlLk6GJQsqaUBKTNV-1">
          <mxGeometry x="1103" y="-738" width="160" height="108" as="geometry" />
        </mxCell>
        <mxCell id="0v1ROKlj3fr6N2Xui-20-60" value="-login                String&#xa;-password        String&#xa;&#xa;&#xa;" style="text;strokeColor=none;fillColor=none;align=left;verticalAlign=top;spacingLeft=4;spacingRight=4;overflow=hidden;rotatable=0;points=[[0,0.5],[1,0.5]];portConstraint=eastwest;" vertex="1" parent="0v1ROKlj3fr6N2Xui-20-59">
          <mxGeometry y="26" width="160" height="44" as="geometry" />
        </mxCell>
        <mxCell id="0v1ROKlj3fr6N2Xui-20-61" value="" style="line;strokeWidth=1;fillColor=none;align=left;verticalAlign=middle;spacingTop=-1;spacingLeft=3;spacingRight=3;rotatable=0;labelPosition=right;points=[];portConstraint=eastwest;strokeColor=inherit;" vertex="1" parent="0v1ROKlj3fr6N2Xui-20-59">
          <mxGeometry y="70" width="160" height="8" as="geometry" />
        </mxCell>
        <mxCell id="0v1ROKlj3fr6N2Xui-20-62" value="LoginMessage()" style="text;strokeColor=none;fillColor=none;align=left;verticalAlign=top;spacingLeft=4;spacingRight=4;overflow=hidden;rotatable=0;points=[[0,0.5],[1,0.5]];portConstraint=eastwest;" vertex="1" parent="0v1ROKlj3fr6N2Xui-20-59">
          <mxGeometry y="78" width="160" height="30" as="geometry" />
        </mxCell>
        <mxCell id="0v1ROKlj3fr6N2Xui-20-148" style="edgeStyle=orthogonalEdgeStyle;rounded=0;sketch=0;orthogonalLoop=1;jettySize=auto;html=1;entryX=0.5;entryY=1;entryDx=0;entryDy=0;startArrow=none;startFill=0;endArrow=classicThin;endFill=1;" edge="1" parent="WIyWlLk6GJQsqaUBKTNV-1" source="0v1ROKlj3fr6N2Xui-20-65" target="0v1ROKlj3fr6N2Xui-20-81">
          <mxGeometry relative="1" as="geometry">
            <Array as="points">
              <mxPoint x="560" y="-840" />
              <mxPoint x="770" y="-840" />
            </Array>
          </mxGeometry>
        </mxCell>
        <mxCell id="0v1ROKlj3fr6N2Xui-20-65" value="LobbyInfoMessage" style="swimlane;fontStyle=1;align=center;verticalAlign=top;childLayout=stackLayout;horizontal=1;startSize=26;horizontalStack=0;resizeParent=1;resizeParentMax=0;resizeLast=0;collapsible=1;marginBottom=0;" vertex="1" parent="WIyWlLk6GJQsqaUBKTNV-1">
          <mxGeometry x="420" y="-563" width="230" height="104" as="geometry" />
        </mxCell>
        <mxCell id="0v1ROKlj3fr6N2Xui-20-66" value="gameName:            String&#xa;playernames:          LinkedList&lt;String&gt;" style="text;strokeColor=none;fillColor=none;align=left;verticalAlign=top;spacingLeft=4;spacingRight=4;overflow=hidden;rotatable=0;points=[[0,0.5],[1,0.5]];portConstraint=eastwest;" vertex="1" parent="0v1ROKlj3fr6N2Xui-20-65">
          <mxGeometry y="26" width="230" height="44" as="geometry" />
        </mxCell>
        <mxCell id="0v1ROKlj3fr6N2Xui-20-67" value="" style="line;strokeWidth=1;fillColor=none;align=left;verticalAlign=middle;spacingTop=-1;spacingLeft=3;spacingRight=3;rotatable=0;labelPosition=right;points=[];portConstraint=eastwest;strokeColor=inherit;" vertex="1" parent="0v1ROKlj3fr6N2Xui-20-65">
          <mxGeometry y="70" width="230" height="8" as="geometry" />
        </mxCell>
        <mxCell id="0v1ROKlj3fr6N2Xui-20-68" value="LobbyInfoMessage()" style="text;strokeColor=none;fillColor=none;align=left;verticalAlign=top;spacingLeft=4;spacingRight=4;overflow=hidden;rotatable=0;points=[[0,0.5],[1,0.5]];portConstraint=eastwest;" vertex="1" parent="0v1ROKlj3fr6N2Xui-20-65">
          <mxGeometry y="78" width="230" height="26" as="geometry" />
        </mxCell>
        <mxCell id="0v1ROKlj3fr6N2Xui-20-145" style="edgeStyle=orthogonalEdgeStyle;rounded=0;sketch=0;orthogonalLoop=1;jettySize=auto;html=1;startArrow=none;startFill=0;endArrow=classicThin;endFill=1;entryX=0.5;entryY=1;entryDx=0;entryDy=0;" edge="1" parent="WIyWlLk6GJQsqaUBKTNV-1" source="0v1ROKlj3fr6N2Xui-20-69" target="0v1ROKlj3fr6N2Xui-20-81">
          <mxGeometry relative="1" as="geometry">
            <mxPoint x="710" y="-1110" as="targetPoint" />
            <Array as="points">
              <mxPoint x="770" y="-840" />
            </Array>
          </mxGeometry>
        </mxCell>
        <mxCell id="0v1ROKlj3fr6N2Xui-20-69" value="GameBeggingMessage" style="swimlane;fontStyle=1;align=center;verticalAlign=top;childLayout=stackLayout;horizontal=1;startSize=26;horizontalStack=0;resizeParent=1;resizeParentMax=0;resizeLast=0;collapsible=1;marginBottom=0;" vertex="1" parent="WIyWlLk6GJQsqaUBKTNV-1">
          <mxGeometry x="310" y="-859" width="160" height="104" as="geometry" />
        </mxCell>
        <mxCell id="0v1ROKlj3fr6N2Xui-20-70" value="+playerNumber:          int&#xa;+gameType                String&#xa;" style="text;strokeColor=none;fillColor=none;align=left;verticalAlign=top;spacingLeft=4;spacingRight=4;overflow=hidden;rotatable=0;points=[[0,0.5],[1,0.5]];portConstraint=eastwest;" vertex="1" parent="0v1ROKlj3fr6N2Xui-20-69">
          <mxGeometry y="26" width="160" height="44" as="geometry" />
        </mxCell>
        <mxCell id="0v1ROKlj3fr6N2Xui-20-71" value="" style="line;strokeWidth=1;fillColor=none;align=left;verticalAlign=middle;spacingTop=-1;spacingLeft=3;spacingRight=3;rotatable=0;labelPosition=right;points=[];portConstraint=eastwest;strokeColor=inherit;" vertex="1" parent="0v1ROKlj3fr6N2Xui-20-69">
          <mxGeometry y="70" width="160" height="8" as="geometry" />
        </mxCell>
        <mxCell id="0v1ROKlj3fr6N2Xui-20-72" value="+gameBeginningMessage()" style="text;strokeColor=none;fillColor=none;align=left;verticalAlign=top;spacingLeft=4;spacingRight=4;overflow=hidden;rotatable=0;points=[[0,0.5],[1,0.5]];portConstraint=eastwest;" vertex="1" parent="0v1ROKlj3fr6N2Xui-20-69">
          <mxGeometry y="78" width="160" height="26" as="geometry" />
        </mxCell>
        <mxCell id="0v1ROKlj3fr6N2Xui-20-146" style="edgeStyle=orthogonalEdgeStyle;rounded=0;sketch=0;orthogonalLoop=1;jettySize=auto;html=1;entryX=0.5;entryY=1;entryDx=0;entryDy=0;startArrow=none;startFill=0;endArrow=classicThin;endFill=1;" edge="1" parent="WIyWlLk6GJQsqaUBKTNV-1" source="0v1ROKlj3fr6N2Xui-20-73" target="0v1ROKlj3fr6N2Xui-20-81">
          <mxGeometry relative="1" as="geometry">
            <Array as="points">
              <mxPoint x="690" y="-840" />
              <mxPoint x="770" y="-840" />
            </Array>
          </mxGeometry>
        </mxCell>
        <mxCell id="0v1ROKlj3fr6N2Xui-20-73" value="JoinLobbyMessage" style="swimlane;fontStyle=1;align=center;verticalAlign=top;childLayout=stackLayout;horizontal=1;startSize=26;horizontalStack=0;resizeParent=1;resizeParentMax=0;resizeLast=0;collapsible=1;marginBottom=0;" vertex="1" parent="WIyWlLk6GJQsqaUBKTNV-1">
          <mxGeometry x="610" y="-808" width="160" height="86" as="geometry" />
        </mxCell>
        <mxCell id="0v1ROKlj3fr6N2Xui-20-74" value="+hostName:                String" style="text;strokeColor=none;fillColor=none;align=left;verticalAlign=top;spacingLeft=4;spacingRight=4;overflow=hidden;rotatable=0;points=[[0,0.5],[1,0.5]];portConstraint=eastwest;" vertex="1" parent="0v1ROKlj3fr6N2Xui-20-73">
          <mxGeometry y="26" width="160" height="26" as="geometry" />
        </mxCell>
        <mxCell id="0v1ROKlj3fr6N2Xui-20-75" value="" style="line;strokeWidth=1;fillColor=none;align=left;verticalAlign=middle;spacingTop=-1;spacingLeft=3;spacingRight=3;rotatable=0;labelPosition=right;points=[];portConstraint=eastwest;strokeColor=inherit;" vertex="1" parent="0v1ROKlj3fr6N2Xui-20-73">
          <mxGeometry y="52" width="160" height="8" as="geometry" />
        </mxCell>
        <mxCell id="0v1ROKlj3fr6N2Xui-20-76" value="+JoinLobbyMessage()" style="text;strokeColor=none;fillColor=none;align=left;verticalAlign=top;spacingLeft=4;spacingRight=4;overflow=hidden;rotatable=0;points=[[0,0.5],[1,0.5]];portConstraint=eastwest;" vertex="1" parent="0v1ROKlj3fr6N2Xui-20-73">
          <mxGeometry y="60" width="160" height="26" as="geometry" />
        </mxCell>
        <mxCell id="0v1ROKlj3fr6N2Xui-20-130" style="edgeStyle=orthogonalEdgeStyle;rounded=0;sketch=0;orthogonalLoop=1;jettySize=auto;html=1;entryX=0.515;entryY=0.989;entryDx=0;entryDy=0;entryPerimeter=0;startArrow=diamond;startFill=1;endArrow=diamond;endFill=1;fillColor=#ffe6cc;strokeColor=#d79b00;" edge="1" parent="WIyWlLk6GJQsqaUBKTNV-1" source="0v1ROKlj3fr6N2Xui-20-77" target="0v1ROKlj3fr6N2Xui-20-96">
          <mxGeometry relative="1" as="geometry" />
        </mxCell>
        <mxCell id="0v1ROKlj3fr6N2Xui-20-131" value="1" style="edgeLabel;html=1;align=center;verticalAlign=middle;resizable=0;points=[];" vertex="1" connectable="0" parent="0v1ROKlj3fr6N2Xui-20-130">
          <mxGeometry x="0.8809" y="-1" relative="1" as="geometry">
            <mxPoint x="10" as="offset" />
          </mxGeometry>
        </mxCell>
        <mxCell id="0v1ROKlj3fr6N2Xui-20-132" value="1" style="edgeLabel;html=1;align=center;verticalAlign=middle;resizable=0;points=[];" vertex="1" connectable="0" parent="0v1ROKlj3fr6N2Xui-20-130">
          <mxGeometry x="-0.881" y="-1" relative="1" as="geometry">
            <mxPoint x="-11" as="offset" />
          </mxGeometry>
        </mxCell>
        <mxCell id="0v1ROKlj3fr6N2Xui-20-133" value="create" style="edgeStyle=orthogonalEdgeStyle;rounded=0;sketch=0;orthogonalLoop=1;jettySize=auto;html=1;startArrow=none;startFill=0;endArrow=classicThin;endFill=1;" edge="1" parent="WIyWlLk6GJQsqaUBKTNV-1" source="0v1ROKlj3fr6N2Xui-20-77">
          <mxGeometry relative="1" as="geometry">
            <mxPoint x="360" y="-750" as="targetPoint" />
            <Array as="points">
              <mxPoint x="300" y="-729" />
              <mxPoint x="360" y="-729" />
            </Array>
          </mxGeometry>
        </mxCell>
        <mxCell id="0v1ROKlj3fr6N2Xui-20-134" style="edgeStyle=orthogonalEdgeStyle;rounded=0;sketch=0;orthogonalLoop=1;jettySize=auto;html=1;entryX=0.434;entryY=1.043;entryDx=0;entryDy=0;entryPerimeter=0;startArrow=none;startFill=0;endArrow=classicThin;endFill=1;" edge="1" parent="WIyWlLk6GJQsqaUBKTNV-1" source="0v1ROKlj3fr6N2Xui-20-77" target="0v1ROKlj3fr6N2Xui-20-104">
          <mxGeometry relative="1" as="geometry">
            <Array as="points">
              <mxPoint x="4" y="-584" />
            </Array>
          </mxGeometry>
        </mxCell>
        <mxCell id="0v1ROKlj3fr6N2Xui-20-135" value="create" style="edgeLabel;html=1;align=center;verticalAlign=middle;resizable=0;points=[];" vertex="1" connectable="0" parent="0v1ROKlj3fr6N2Xui-20-134">
          <mxGeometry x="0.4728" relative="1" as="geometry">
            <mxPoint as="offset" />
          </mxGeometry>
        </mxCell>
        <mxCell id="0v1ROKlj3fr6N2Xui-20-77" value="Game" style="swimlane;fontStyle=1;align=center;verticalAlign=top;childLayout=stackLayout;horizontal=1;startSize=26;horizontalStack=0;resizeParent=1;resizeParentMax=0;resizeLast=0;collapsible=1;marginBottom=0;" vertex="1" parent="WIyWlLk6GJQsqaUBKTNV-1">
          <mxGeometry x="115" y="-709" width="270" height="250" as="geometry" />
        </mxCell>
        <mxCell id="0v1ROKlj3fr6N2Xui-20-78" value="#lobby                                 Lobby&#xa;#redyPlayer:                        int&#xa;#board:                                CheckersBoard&#xa;#playerNumbers:                 int[]&#xa;#currentPlayer:                    int&#xa;#won:                                  boolean&#xa;" style="text;strokeColor=none;fillColor=none;align=left;verticalAlign=top;spacingLeft=4;spacingRight=4;overflow=hidden;rotatable=0;points=[[0,0.5],[1,0.5]];portConstraint=eastwest;" vertex="1" parent="0v1ROKlj3fr6N2Xui-20-77">
          <mxGeometry y="26" width="270" height="94" as="geometry" />
        </mxCell>
        <mxCell id="0v1ROKlj3fr6N2Xui-20-79" value="" style="line;strokeWidth=1;fillColor=none;align=left;verticalAlign=middle;spacingTop=-1;spacingLeft=3;spacingRight=3;rotatable=0;labelPosition=right;points=[];portConstraint=eastwest;strokeColor=inherit;" vertex="1" parent="0v1ROKlj3fr6N2Xui-20-77">
          <mxGeometry y="120" width="270" height="8" as="geometry" />
        </mxCell>
        <mxCell id="0v1ROKlj3fr6N2Xui-20-80" value="+Game(Lobby)&#xa;+deliverMove(int, int, int, int)                          void&#xa;+endGame()                                                   void&#xa;+messageCurrentPlayer(MessageHolder)     void&#xa;+move(int, int, int, int)                                    void&#xa;+ready()                                                         void&#xa;+turn()                                                            void&#xa;" style="text;strokeColor=none;fillColor=none;align=left;verticalAlign=top;spacingLeft=4;spacingRight=4;overflow=hidden;rotatable=0;points=[[0,0.5],[1,0.5]];portConstraint=eastwest;" vertex="1" parent="0v1ROKlj3fr6N2Xui-20-77">
          <mxGeometry y="128" width="270" height="122" as="geometry" />
        </mxCell>
        <mxCell id="0v1ROKlj3fr6N2Xui-20-81" value="MessageHolder" style="swimlane;fontStyle=1;align=center;verticalAlign=top;childLayout=stackLayout;horizontal=1;startSize=26;horizontalStack=0;resizeParent=1;resizeParentMax=0;resizeLast=0;collapsible=1;marginBottom=0;" vertex="1" parent="WIyWlLk6GJQsqaUBKTNV-1">
          <mxGeometry x="690" y="-1203" width="160" height="86" as="geometry" />
        </mxCell>
        <mxCell id="0v1ROKlj3fr6N2Xui-20-82" value="+messageType:          String" style="text;strokeColor=none;fillColor=none;align=left;verticalAlign=top;spacingLeft=4;spacingRight=4;overflow=hidden;rotatable=0;points=[[0,0.5],[1,0.5]];portConstraint=eastwest;" vertex="1" parent="0v1ROKlj3fr6N2Xui-20-81">
          <mxGeometry y="26" width="160" height="26" as="geometry" />
        </mxCell>
        <mxCell id="0v1ROKlj3fr6N2Xui-20-83" value="" style="line;strokeWidth=1;fillColor=none;align=left;verticalAlign=middle;spacingTop=-1;spacingLeft=3;spacingRight=3;rotatable=0;labelPosition=right;points=[];portConstraint=eastwest;strokeColor=inherit;" vertex="1" parent="0v1ROKlj3fr6N2Xui-20-81">
          <mxGeometry y="52" width="160" height="8" as="geometry" />
        </mxCell>
        <mxCell id="0v1ROKlj3fr6N2Xui-20-84" value="+Messageholder()" style="text;strokeColor=none;fillColor=none;align=left;verticalAlign=top;spacingLeft=4;spacingRight=4;overflow=hidden;rotatable=0;points=[[0,0.5],[1,0.5]];portConstraint=eastwest;" vertex="1" parent="0v1ROKlj3fr6N2Xui-20-81">
          <mxGeometry y="60" width="160" height="26" as="geometry" />
        </mxCell>
        <mxCell id="0v1ROKlj3fr6N2Xui-20-85" value="Classname" style="swimlane;fontStyle=1;align=center;verticalAlign=top;childLayout=stackLayout;horizontal=1;startSize=26;horizontalStack=0;resizeParent=1;resizeParentMax=0;resizeLast=0;collapsible=1;marginBottom=0;" vertex="1" parent="WIyWlLk6GJQsqaUBKTNV-1">
          <mxGeometry x="168" y="-60" width="160" height="86" as="geometry" />
        </mxCell>
        <mxCell id="0v1ROKlj3fr6N2Xui-20-86" value="+ field: type" style="text;strokeColor=none;fillColor=none;align=left;verticalAlign=top;spacingLeft=4;spacingRight=4;overflow=hidden;rotatable=0;points=[[0,0.5],[1,0.5]];portConstraint=eastwest;" vertex="1" parent="0v1ROKlj3fr6N2Xui-20-85">
          <mxGeometry y="26" width="160" height="26" as="geometry" />
        </mxCell>
        <mxCell id="0v1ROKlj3fr6N2Xui-20-87" value="" style="line;strokeWidth=1;fillColor=none;align=left;verticalAlign=middle;spacingTop=-1;spacingLeft=3;spacingRight=3;rotatable=0;labelPosition=right;points=[];portConstraint=eastwest;strokeColor=inherit;" vertex="1" parent="0v1ROKlj3fr6N2Xui-20-85">
          <mxGeometry y="52" width="160" height="8" as="geometry" />
        </mxCell>
        <mxCell id="0v1ROKlj3fr6N2Xui-20-88" value="+ method(type): type" style="text;strokeColor=none;fillColor=none;align=left;verticalAlign=top;spacingLeft=4;spacingRight=4;overflow=hidden;rotatable=0;points=[[0,0.5],[1,0.5]];portConstraint=eastwest;" vertex="1" parent="0v1ROKlj3fr6N2Xui-20-85">
          <mxGeometry y="60" width="160" height="26" as="geometry" />
        </mxCell>
        <mxCell id="0v1ROKlj3fr6N2Xui-20-127" value="create" style="edgeStyle=orthogonalEdgeStyle;rounded=0;sketch=0;orthogonalLoop=1;jettySize=auto;html=1;entryX=0.515;entryY=1;entryDx=0;entryDy=0;entryPerimeter=0;startArrow=none;startFill=0;endArrow=classicThin;endFill=1;" edge="1" parent="WIyWlLk6GJQsqaUBKTNV-1" source="0v1ROKlj3fr6N2Xui-20-89" target="0v1ROKlj3fr6N2Xui-20-80">
          <mxGeometry relative="1" as="geometry" />
        </mxCell>
        <mxCell id="0v1ROKlj3fr6N2Xui-20-128" value="1" style="edgeStyle=orthogonalEdgeStyle;rounded=0;sketch=0;orthogonalLoop=1;jettySize=auto;html=1;startArrow=diamond;startFill=1;endArrow=diamond;endFill=1;entryX=0.87;entryY=1.016;entryDx=0;entryDy=0;entryPerimeter=0;fillColor=#ffe6cc;strokeColor=#d79b00;" edge="1" parent="WIyWlLk6GJQsqaUBKTNV-1" source="0v1ROKlj3fr6N2Xui-20-89" target="0v1ROKlj3fr6N2Xui-20-80">
          <mxGeometry x="-0.5405" y="-10" relative="1" as="geometry">
            <mxPoint x="290" y="-450" as="targetPoint" />
            <Array as="points">
              <mxPoint x="350" y="-430" />
              <mxPoint x="350" y="-430" />
            </Array>
            <mxPoint as="offset" />
          </mxGeometry>
        </mxCell>
        <mxCell id="0v1ROKlj3fr6N2Xui-20-129" value="1" style="edgeLabel;html=1;align=center;verticalAlign=middle;resizable=0;points=[];" vertex="1" connectable="0" parent="0v1ROKlj3fr6N2Xui-20-128">
          <mxGeometry x="0.2637" y="-1" relative="1" as="geometry">
            <mxPoint x="-11" y="-25" as="offset" />
          </mxGeometry>
        </mxCell>
        <mxCell id="0v1ROKlj3fr6N2Xui-20-138" value="create" style="edgeStyle=orthogonalEdgeStyle;rounded=0;sketch=0;orthogonalLoop=1;jettySize=auto;html=1;entryX=0.588;entryY=0.962;entryDx=0;entryDy=0;entryPerimeter=0;startArrow=none;startFill=0;endArrow=classicThin;endFill=1;" edge="1" parent="WIyWlLk6GJQsqaUBKTNV-1" source="0v1ROKlj3fr6N2Xui-20-89" target="0v1ROKlj3fr6N2Xui-20-76">
          <mxGeometry relative="1" as="geometry">
            <Array as="points">
              <mxPoint x="704" y="-280" />
            </Array>
          </mxGeometry>
        </mxCell>
        <mxCell id="0v1ROKlj3fr6N2Xui-20-139" style="edgeStyle=orthogonalEdgeStyle;rounded=0;sketch=0;orthogonalLoop=1;jettySize=auto;html=1;entryX=0.469;entryY=1;entryDx=0;entryDy=0;entryPerimeter=0;startArrow=none;startFill=0;endArrow=classicThin;endFill=1;" edge="1" parent="WIyWlLk6GJQsqaUBKTNV-1" source="0v1ROKlj3fr6N2Xui-20-89" target="0v1ROKlj3fr6N2Xui-20-58">
          <mxGeometry relative="1" as="geometry">
            <Array as="points">
              <mxPoint x="855" y="-250" />
            </Array>
          </mxGeometry>
        </mxCell>
        <mxCell id="0v1ROKlj3fr6N2Xui-20-140" value="create" style="edgeLabel;html=1;align=center;verticalAlign=middle;resizable=0;points=[];" vertex="1" connectable="0" parent="0v1ROKlj3fr6N2Xui-20-139">
          <mxGeometry x="0.2187" y="-2" relative="1" as="geometry">
            <mxPoint as="offset" />
          </mxGeometry>
        </mxCell>
        <mxCell id="0v1ROKlj3fr6N2Xui-20-89" value="Lobby" style="swimlane;fontStyle=1;align=center;verticalAlign=top;childLayout=stackLayout;horizontal=1;startSize=26;horizontalStack=0;resizeParent=1;resizeParentMax=0;resizeLast=0;collapsible=1;marginBottom=0;" vertex="1" parent="WIyWlLk6GJQsqaUBKTNV-1">
          <mxGeometry x="94" y="-370" width="320" height="200" as="geometry" />
        </mxCell>
        <mxCell id="0v1ROKlj3fr6N2Xui-20-90" value="game:                     Game&#xa;host:                       String&#xa;name:                      String&#xa;gameType:             String&#xa;plyers:                    LinkedList&lt;CommunicationThread&gt;&#xa;" style="text;strokeColor=none;fillColor=none;align=left;verticalAlign=top;spacingLeft=4;spacingRight=4;overflow=hidden;rotatable=0;points=[[0,0.5],[1,0.5]];portConstraint=eastwest;" vertex="1" parent="0v1ROKlj3fr6N2Xui-20-89">
          <mxGeometry y="26" width="320" height="84" as="geometry" />
        </mxCell>
        <mxCell id="0v1ROKlj3fr6N2Xui-20-91" value="" style="line;strokeWidth=1;fillColor=none;align=left;verticalAlign=middle;spacingTop=-1;spacingLeft=3;spacingRight=3;rotatable=0;labelPosition=right;points=[];portConstraint=eastwest;strokeColor=inherit;" vertex="1" parent="0v1ROKlj3fr6N2Xui-20-89">
          <mxGeometry y="110" width="320" height="8" as="geometry" />
        </mxCell>
        <mxCell id="0v1ROKlj3fr6N2Xui-20-92" value="+Lobby()&#xa;+addPlyer(UserCommunicationThred):            void&#xa;+deliverMessages(MessegHolder):                 void&#xa;+removePlyer(UserCommunicationThred):      void&#xa;+start():                                                            void&#xa;&#xa;" style="text;strokeColor=none;fillColor=none;align=left;verticalAlign=top;spacingLeft=4;spacingRight=4;overflow=hidden;rotatable=0;points=[[0,0.5],[1,0.5]];portConstraint=eastwest;" vertex="1" parent="0v1ROKlj3fr6N2Xui-20-89">
          <mxGeometry y="118" width="320" height="82" as="geometry" />
        </mxCell>
        <mxCell id="0v1ROKlj3fr6N2Xui-20-93" value="CheckerBoard" style="swimlane;fontStyle=1;align=center;verticalAlign=top;childLayout=stackLayout;horizontal=1;startSize=26;horizontalStack=0;resizeParent=1;resizeParentMax=0;resizeLast=0;collapsible=1;marginBottom=0;" vertex="1" parent="WIyWlLk6GJQsqaUBKTNV-1">
          <mxGeometry x="74" y="-1260" width="340" height="200" as="geometry" />
        </mxCell>
        <mxCell id="0v1ROKlj3fr6N2Xui-20-94" value="+size:                            int&#xa;+height:                        int&#xa;+width:                          int&#xa;+board                          int[][]&#xa;" style="text;strokeColor=none;fillColor=none;align=left;verticalAlign=top;spacingLeft=4;spacingRight=4;overflow=hidden;rotatable=0;points=[[0,0.5],[1,0.5]];portConstraint=eastwest;" vertex="1" parent="0v1ROKlj3fr6N2Xui-20-93">
          <mxGeometry y="26" width="340" height="74" as="geometry" />
        </mxCell>
        <mxCell id="0v1ROKlj3fr6N2Xui-20-95" value="" style="line;strokeWidth=1;fillColor=none;align=left;verticalAlign=middle;spacingTop=-1;spacingLeft=3;spacingRight=3;rotatable=0;labelPosition=right;points=[];portConstraint=eastwest;strokeColor=inherit;" vertex="1" parent="0v1ROKlj3fr6N2Xui-20-93">
          <mxGeometry y="100" width="340" height="8" as="geometry" />
        </mxCell>
        <mxCell id="0v1ROKlj3fr6N2Xui-20-96" value="checklfGameEnded():                       bool&#xa;isin Target(int, int, int, int):                 bool&#xa;move(int, int, int, int):                         void&#xa;setBoard (int[][], int):                          void&#xa;setValid Moves(int, int):                     CheckerBoard" style="text;strokeColor=none;fillColor=none;align=left;verticalAlign=top;spacingLeft=4;spacingRight=4;overflow=hidden;rotatable=0;points=[[0,0.5],[1,0.5]];portConstraint=eastwest;" vertex="1" parent="0v1ROKlj3fr6N2Xui-20-93">
          <mxGeometry y="108" width="340" height="92" as="geometry" />
        </mxCell>
        <mxCell id="0v1ROKlj3fr6N2Xui-20-136" value="create" style="edgeStyle=orthogonalEdgeStyle;rounded=0;sketch=0;orthogonalLoop=1;jettySize=auto;html=1;entryX=0.25;entryY=1;entryDx=0;entryDy=0;startArrow=none;startFill=0;endArrow=classicThin;endFill=1;" edge="1" parent="WIyWlLk6GJQsqaUBKTNV-1" source="0v1ROKlj3fr6N2Xui-20-101" target="0v1ROKlj3fr6N2Xui-20-93">
          <mxGeometry relative="1" as="geometry" />
        </mxCell>
        <mxCell id="0v1ROKlj3fr6N2Xui-20-101" value="CheckerBoardBuilder" style="swimlane;fontStyle=1;align=center;verticalAlign=top;childLayout=stackLayout;horizontal=1;startSize=26;horizontalStack=0;resizeParent=1;resizeParentMax=0;resizeLast=0;collapsible=1;marginBottom=0;" vertex="1" parent="WIyWlLk6GJQsqaUBKTNV-1">
          <mxGeometry x="-122" y="-950" width="290" height="168" as="geometry" />
        </mxCell>
        <mxCell id="0v1ROKlj3fr6N2Xui-20-102" value="+height:                  int&#xa;+widht:                   int&#xa;-legal                     int[][]&#xa;-plyers                   int[][]&#xa;" style="text;strokeColor=none;fillColor=none;align=left;verticalAlign=top;spacingLeft=4;spacingRight=4;overflow=hidden;rotatable=0;points=[[0,0.5],[1,0.5]];portConstraint=eastwest;" vertex="1" parent="0v1ROKlj3fr6N2Xui-20-101">
          <mxGeometry y="26" width="290" height="64" as="geometry" />
        </mxCell>
        <mxCell id="0v1ROKlj3fr6N2Xui-20-103" value="" style="line;strokeWidth=1;fillColor=none;align=left;verticalAlign=middle;spacingTop=-1;spacingLeft=3;spacingRight=3;rotatable=0;labelPosition=right;points=[];portConstraint=eastwest;strokeColor=inherit;" vertex="1" parent="0v1ROKlj3fr6N2Xui-20-101">
          <mxGeometry y="90" width="290" height="8" as="geometry" />
        </mxCell>
        <mxCell id="0v1ROKlj3fr6N2Xui-20-104" value="CheckerBoardBulider()&#xa;build():                            CheckerBoard&#xa;setPlyers(int[][])              void&#xa;&#xa;" style="text;strokeColor=none;fillColor=none;align=left;verticalAlign=top;spacingLeft=4;spacingRight=4;overflow=hidden;rotatable=0;points=[[0,0.5],[1,0.5]];portConstraint=eastwest;" vertex="1" parent="0v1ROKlj3fr6N2Xui-20-101">
          <mxGeometry y="98" width="290" height="70" as="geometry" />
        </mxCell>
        <mxCell id="0v1ROKlj3fr6N2Xui-20-115" value="" style="edgeStyle=orthogonalEdgeStyle;rounded=0;orthogonalLoop=1;jettySize=auto;html=1;entryX=0.497;entryY=1.009;entryDx=0;entryDy=0;entryPerimeter=0;" edge="1" parent="WIyWlLk6GJQsqaUBKTNV-1" source="0v1ROKlj3fr6N2Xui-20-109" target="0v1ROKlj3fr6N2Xui-20-10">
          <mxGeometry relative="1" as="geometry">
            <mxPoint x="660" y="635" as="targetPoint" />
          </mxGeometry>
        </mxCell>
        <mxCell id="0v1ROKlj3fr6N2Xui-20-109" value="TerminalWindow" style="swimlane;fontStyle=1;align=center;verticalAlign=top;childLayout=stackLayout;horizontal=1;startSize=26;horizontalStack=0;resizeParent=1;resizeParentMax=0;resizeLast=0;collapsible=1;marginBottom=0;" vertex="1" parent="WIyWlLk6GJQsqaUBKTNV-1">
          <mxGeometry x="1095" y="900" width="160" height="110" as="geometry" />
        </mxCell>
        <mxCell id="0v1ROKlj3fr6N2Xui-20-110" value="+TerminalWindow()" style="text;strokeColor=none;fillColor=none;align=left;verticalAlign=top;spacingLeft=4;spacingRight=4;overflow=hidden;rotatable=0;points=[[0,0.5],[1,0.5]];portConstraint=eastwest;" vertex="1" parent="0v1ROKlj3fr6N2Xui-20-109">
          <mxGeometry y="26" width="160" height="26" as="geometry" />
        </mxCell>
        <mxCell id="0v1ROKlj3fr6N2Xui-20-111" value="" style="line;strokeWidth=1;fillColor=none;align=left;verticalAlign=middle;spacingTop=-1;spacingLeft=3;spacingRight=3;rotatable=0;labelPosition=right;points=[];portConstraint=eastwest;strokeColor=inherit;" vertex="1" parent="0v1ROKlj3fr6N2Xui-20-109">
          <mxGeometry y="52" width="160" height="8" as="geometry" />
        </mxCell>
        <mxCell id="0v1ROKlj3fr6N2Xui-20-112" value="+lunchWindow()            void+start(Stage)                 void" style="text;strokeColor=none;fillColor=none;align=left;verticalAlign=top;spacingLeft=4;spacingRight=4;overflow=hidden;rotatable=0;points=[[0,0.5],[1,0.5]];portConstraint=eastwest;" vertex="1" parent="0v1ROKlj3fr6N2Xui-20-109">
          <mxGeometry y="60" width="160" height="50" as="geometry" />
        </mxCell>
        <mxCell id="0v1ROKlj3fr6N2Xui-20-126" style="edgeStyle=orthogonalEdgeStyle;rounded=0;sketch=0;orthogonalLoop=1;jettySize=auto;html=1;startArrow=none;startFill=0;endArrow=classicThin;endFill=1;" edge="1" parent="WIyWlLk6GJQsqaUBKTNV-1" source="0v1ROKlj3fr6N2Xui-20-92">
          <mxGeometry x="-1" y="-92" relative="1" as="geometry">
            <mxPoint x="619" y="-110" as="targetPoint" />
            <Array as="points">
              <mxPoint x="390" y="-110" />
            </Array>
            <mxPoint x="-14" y="-1" as="offset" />
          </mxGeometry>
        </mxCell>
        <mxCell id="0v1ROKlj3fr6N2Xui-20-137" value="create" style="edgeStyle=orthogonalEdgeStyle;rounded=0;sketch=0;orthogonalLoop=1;jettySize=auto;html=1;entryX=0.548;entryY=0.962;entryDx=0;entryDy=0;entryPerimeter=0;startArrow=none;startFill=0;endArrow=classicThin;endFill=1;" edge="1" parent="WIyWlLk6GJQsqaUBKTNV-1" source="0v1ROKlj3fr6N2Xui-20-90" target="0v1ROKlj3fr6N2Xui-20-68">
          <mxGeometry relative="1" as="geometry" />
        </mxCell>
        <mxCell id="0v1ROKlj3fr6N2Xui-20-144" style="edgeStyle=orthogonalEdgeStyle;rounded=0;sketch=0;orthogonalLoop=1;jettySize=auto;html=1;entryX=0.633;entryY=0.004;entryDx=0;entryDy=0;entryPerimeter=0;startArrow=none;startFill=0;endArrow=classicThin;endFill=1;" edge="1" parent="WIyWlLk6GJQsqaUBKTNV-1" source="0v1ROKlj3fr6N2Xui-20-82" target="0v1ROKlj3fr6N2Xui-20-77">
          <mxGeometry relative="1" as="geometry">
            <Array as="points">
              <mxPoint x="500" y="-1164" />
              <mxPoint x="500" y="-940" />
              <mxPoint x="286" y="-940" />
            </Array>
          </mxGeometry>
        </mxCell>
      </root>
    </mxGraphModel>
  </diagram>
</mxfile>
